<?xml version="1.0" standalone="no"?>
<!DOCTYPE svg PUBLIC "-//W3C//DTD SVG 20010904//EN"
 "http://www.w3.org/TR/2001/REC-SVG-20010904/DTD/svg10.dtd">
<svg version="1.0" xmlns="http://www.w3.org/2000/svg"
 width="2500.000000pt" height="2500.000000pt" viewBox="0 0 2500.000000 2500.000000"
 preserveAspectRatio="xMidYMid meet">

<g transform="translate(0.000000,2500.000000) scale(0.100000,-0.100000)"
fill="#000000" stroke="none">
<path d="M8545 20992 c-177 -67 -188 -73 -180 -94 11 -27 62 -14 199 51 71 33
136 61 144 61 13 0 292 -107 300 -115 2 -2 -23 -17 -56 -34 -33 -17 -63 -35
-66 -40 -7 -11 56 12 124 45 l45 22 -168 81 c-92 45 -173 81 -180 81 -6 0 -79
-26 -162 -58z"/>
<path d="M17902 20910 c-227 -107 -236 -108 -450 -34 l-164 57 -194 -33 -194
-33 -72 17 c-73 18 -73 18 -123 -4 -27 -13 -79 -33 -115 -46 l-65 -24 80 -1
c85 -2 92 -3 115 -12 70 -26 102 -27 290 -7 63 6 134 6 210 0 253 -22 321 -23
430 -5 58 9 123 21 145 27 22 5 48 12 59 14 23 4 34 14 16 14 -10 0 -10 3 1
16 15 18 202 114 223 114 23 0 109 -42 99 -49 -5 -3 -12 -14 -16 -23 -7 -20
17 -23 110 -12 61 8 61 19 0 29 -23 4 -72 23 -109 41 -37 19 -78 34 -90 33
-13 0 -97 -36 -186 -79z m-552 -29 c30 -11 69 -25 85 -32 30 -13 30 -13 -30
-20 -110 -13 -403 -10 -411 4 -4 6 -4 9 0 6 3 -3 61 8 129 25 154 40 160 40
227 17z"/>
<path d="M14254 20960 c-27 -4 -63 -15 -80 -24 -18 -10 -21 -15 -9 -12 95 21
165 39 165 42 0 5 -8 4 -76 -6z"/>
<path d="M14440 20964 c0 -5 35 -22 77 -38 77 -30 141 -35 173 -15 11 8 10 8
-7 4 -17 -5 -174 31 -230 52 -7 3 -13 1 -13 -3z"/>
<path d="M9855 20945 c-82 -19 -84 -24 -10 -23 39 0 88 -5 111 -11 55 -15 164
-29 159 -21 -3 4 -17 10 -32 13 -16 4 -62 17 -103 30 -66 20 -81 22 -125 12z"/>
<path d="M7653 20940 c-13 -5 -23 -11 -23 -14 0 -7 40 6 46 15 6 10 6 10 -23
-1z"/>
<path d="M11525 20940 c-3 -6 2 -10 12 -10 10 0 36 -11 58 -25 22 -13 49 -24
60 -24 14 0 8 6 -20 21 -70 37 -104 48 -110 38z"/>
<path d="M5620 20923 l-35 -16 55 -8 c72 -10 99 -21 194 -77 44 -26 100 -55
125 -64 l46 -16 -37 -2 c-21 -2 -42 -4 -48 -5 -5 -1 -38 -4 -72 -5 l-63 -3 90
-11 90 -12 79 40 c89 47 85 53 -38 55 -57 1 -81 7 -154 41 -48 23 -107 54
-133 70 -53 35 -53 34 -99 13z"/>
<path d="M11805 20926 c-50 -14 -49 -14 75 -15 89 -1 130 -6 143 -15 10 -8 14
-17 9 -20 -4 -3 -60 -5 -123 -6 -196 0 -339 -30 -339 -70 0 -13 123 -9 149 5
105 55 213 53 401 -7 78 -25 110 -30 180 -29 118 2 196 18 257 52 53 30 53 30
126 18 62 -10 92 -9 212 6 77 11 155 19 173 20 17 0 32 3 32 6 0 10 -36 17
-127 25 -74 6 -84 4 -112 -15 -27 -20 -41 -21 -144 -19 -87 2 -118 -1 -131
-11 -25 -21 -137 -15 -276 14 -39 8 -88 15 -107 15 -20 0 -71 12 -112 26 -91
32 -212 40 -286 20z"/>
<path d="M18955 20923 c-63 -9 -158 -13 -257 -11 -87 2 -158 0 -158 -4 0 -4 8
-7 18 -6 9 0 31 -4 47 -9 47 -15 160 -15 274 1 l104 13 63 -28 c63 -29 81 -53
47 -62 -20 -5 2 -2 99 14 67 11 129 5 112 -10 -5 -4 -31 -14 -59 -22 l-50 -14
45 -8 c25 -5 60 -9 77 -10 20 0 35 -7 38 -16 3 -9 28 -40 55 -69 28 -30 50
-60 50 -67 0 -7 5 -15 11 -17 5 -2 11 -12 13 -21 1 -10 7 -22 12 -25 29 -22
84 -124 98 -184 10 -42 30 -89 52 -123 35 -52 37 -58 31 -120 -3 -49 -12 -75
-31 -104 -15 -22 -32 -66 -40 -107 -14 -72 -33 -124 -51 -136 -5 -4 -6 -8 -2
-8 5 0 2 -7 -7 -15 -9 -10 -15 -34 -15 -68 0 -29 -8 -75 -18 -102 -11 -30 -18
-72 -17 -105 2 -64 38 -229 59 -269 23 -46 55 -135 55 -156 0 -15 2 -17 9 -6
5 8 -3 50 -20 109 -16 53 -26 103 -23 112 4 8 8 21 10 28 4 21 14 27 14 9 0
-9 5 -17 10 -17 6 0 10 -9 10 -19 0 -11 4 -22 9 -25 5 -3 14 -43 20 -88 40
-313 42 -388 10 -450 -16 -31 -21 -63 -24 -146 -2 -59 -4 -111 -6 -117 -3 -10
14 -97 31 -162 6 -26 5 -33 -9 -38 -9 -3 -42 -39 -74 -80 -32 -41 -62 -75 -67
-75 -4 0 -10 7 -14 15 -7 20 -56 16 -57 -5 -2 -29 2 -45 25 -100 13 -30 29
-66 35 -80 10 -24 10 -23 4 5 -7 33 -7 49 0 80 3 11 6 24 6 30 1 5 13 -13 27
-40 32 -60 29 -56 47 -59 19 -2 47 -25 47 -38 0 -6 -6 -8 -13 -5 -8 3 -19 2
-26 -3 -9 -5 0 -26 35 -76 40 -58 48 -76 47 -112 -1 -30 -8 -48 -20 -58 -25
-19 -32 -17 -43 10 -14 39 -31 42 -23 4 4 -18 7 -64 8 -103 0 -71 -10 -102
-87 -262 -27 -55 -95 -101 -243 -161 -35 -15 -53 -17 -62 -10 -7 6 -13 6 -13
1 0 -5 -19 -9 -42 -9 -30 0 -42 -4 -40 -13 1 -7 -2 -10 -7 -7 -22 14 0 42 59
72 35 18 67 32 70 31 26 -5 93 19 110 40 20 25 18 49 -2 37 -6 -4 -27 -7 -45
-6 -36 2 -106 -28 -120 -51 -14 -22 -141 -96 -160 -92 -10 1 -23 -2 -29 -7 -7
-5 -33 -9 -58 -10 -25 0 -46 -3 -46 -7 0 -11 -48 -12 -55 -1 -3 5 -12 7 -20 3
-8 -3 -15 -1 -15 4 0 5 -12 10 -27 11 -16 1 -29 6 -31 12 -2 5 -9 7 -16 4 -7
-3 -19 2 -26 10 -7 9 -16 13 -21 10 -5 -3 -9 0 -9 7 0 6 -8 9 -20 6 -11 -3
-20 -2 -20 2 0 4 -16 7 -35 7 -19 -1 -35 -5 -35 -10 0 -4 -6 -3 -14 3 -10 8
-16 9 -21 1 -4 -6 -12 -7 -24 0 -13 6 -24 5 -37 -5 -13 -9 -23 -10 -31 -3 -7
6 -13 8 -13 6 0 -3 -21 -2 -47 3 -31 6 -50 5 -60 -2 -7 -6 -13 -9 -13 -6 0 4
-71 -18 -157 -47 -170 -58 -245 -67 -265 -33 -5 10 -14 15 -20 11 -7 -4 -8 1
-3 16 6 18 4 22 -8 17 -8 -3 -23 3 -32 13 -15 17 -15 19 2 24 27 8 -117 -4
-159 -14 -33 -7 -107 -5 -163 5 -11 2 -24 4 -28 4 -4 1 -13 15 -18 31 -6 17
-18 30 -26 30 -8 0 -11 5 -8 10 4 6 11 7 17 4 7 -4 8 -2 4 4 -10 17 -37 15
-134 -12 -138 -39 -490 -58 -707 -40 -108 9 -110 10 -124 18 -8 5 -14 1 -18
-13 -3 -12 -8 -22 -12 -22 -45 -9 -51 -6 -51 28 0 26 -9 43 -36 71 -23 23 -38
32 -41 25 -5 -15 -30 -17 -35 -4 -2 5 -19 4 -41 -4 -22 -7 -40 -9 -43 -3 -3 5
-11 5 -18 -1 -7 -6 -16 -8 -19 -4 -4 3 -7 -7 -7 -24 0 -34 30 -79 60 -88 34
-11 22 -20 -22 -20 -60 1 -76 11 -89 56 -7 21 -16 39 -20 39 -19 0 -38 -13
-32 -23 3 -5 1 -7 -4 -4 -6 4 -46 -11 -89 -32 -152 -76 -134 -72 -346 -68
-205 5 -248 12 -294 52 -16 14 -32 25 -36 25 -4 0 -23 14 -43 31 -37 32 -46
59 -20 59 8 0 15 7 15 15 0 9 11 20 25 25 14 5 25 13 26 17 0 5 2 18 3 30 4
34 -17 35 -93 3 -57 -23 -77 -27 -102 -20 -35 10 -49 6 -49 -14 0 -19 -113
-86 -144 -86 -16 0 -64 -28 -130 -77 -95 -69 -105 -80 -111 -114 -4 -22 -11
-41 -16 -45 -16 -10 -10 -41 27 -126 43 -100 90 -339 104 -528 5 -69 14 -154
21 -190 11 -66 17 -372 10 -605 -3 -120 6 -290 29 -525 11 -106 14 -125 30
-190 8 -32 10 -129 5 -330 -15 -681 -3 -1599 25 -1960 5 -69 11 -170 13 -225
3 -93 3 -98 -10 -66 -8 18 -12 40 -9 47 3 8 1 14 -5 14 -7 0 -9 12 -7 30 3 18
1 27 -4 22 -5 -5 -10 -16 -11 -23 -2 -8 -6 -19 -9 -25 -4 -5 -5 -44 -3 -85 1
-41 6 -137 10 -214 6 -130 3 -160 -34 -423 -35 -243 -43 -326 -52 -580 -10
-259 -10 -328 5 -537 32 -440 42 -675 32 -720 -2 -11 -5 -31 -5 -44 -1 -16 -5
-21 -16 -17 -8 3 -15 0 -16 -7 -6 -84 0 -172 37 -512 8 -77 17 -158 19 -180 2
-22 11 -107 20 -189 22 -201 23 -356 3 -511 -10 -71 -26 -197 -37 -280 -11
-82 -23 -177 -26 -210 -4 -33 -13 -87 -20 -120 l-13 -60 -1 68 c-1 64 -12 86
-25 51 -3 -9 -9 -48 -12 -87 -4 -40 -13 -82 -21 -95 -12 -20 -8 -44 41 -245
53 -212 76 -298 146 -555 l31 -113 -111 -297 c-61 -163 -118 -314 -126 -336
-20 -51 -9 -60 12 -10 8 21 24 58 35 81 10 24 19 45 19 48 0 3 9 24 19 48 26
57 112 276 141 357 31 86 40 94 41 35 l1 -50 14 33 c8 17 18 32 24 32 17 0 13
-605 -5 -723 -9 -56 -20 -110 -25 -120 -11 -18 -6 -240 5 -269 4 -9 2 -18 -3
-22 -5 -3 -7 -79 -4 -176 5 -199 -7 -285 -40 -287 -11 -1 -22 -3 -24 -5 -1 -2
6 -44 17 -93 25 -119 25 -226 -1 -274 -11 -20 -29 -61 -40 -93 -11 -31 -28
-62 -37 -70 -14 -11 -16 -11 -9 1 7 10 3 12 -13 6 -13 -4 -21 -2 -21 5 0 6 -4
8 -10 5 -5 -3 -10 -2 -10 2 0 5 -14 10 -32 11 -37 3 -41 6 -43 30 -2 35 -20
22 -50 -37 -31 -63 -40 -71 -89 -77 -17 -2 -33 -8 -36 -14 -3 -5 -22 -8 -42
-7 -20 2 -34 -1 -31 -6 3 -4 -1 -7 -8 -6 -20 3 -69 -12 -69 -21 0 -4 -8 -10
-18 -12 -10 -3 -19 -13 -20 -22 -1 -9 -3 -24 -4 -33 -2 -27 -19 -33 -44 -17
-12 9 -42 15 -66 14 -24 0 -51 -1 -61 -1 -10 0 -40 13 -66 30 -45 29 -49 30
-132 24 -112 -8 -298 24 -283 48 11 19 81 41 135 42 91 3 59 28 -66 51 -11 2
-54 -5 -95 -15 -41 -11 -111 -21 -155 -23 -44 -2 -98 -8 -120 -14 -22 -6 -56
-13 -76 -16 -20 -3 -42 -7 -50 -10 -8 -3 -43 -7 -79 -10 -36 -4 -117 -11 -180
-17 -63 -5 -181 -23 -263 -38 -114 -22 -181 -29 -297 -30 l-149 -2 -80 41
c-45 23 -79 45 -77 48 2 4 -14 21 -36 37 l-40 30 27 3 c23 3 25 5 10 16 -9 7
-13 18 -10 28 6 15 10 15 41 2 20 -8 34 -10 34 -4 0 5 -7 10 -15 10 -8 0 -15
5 -15 10 0 14 36 -5 43 -22 3 -7 5 -4 4 8 -1 11 -6 21 -12 22 -5 0 -20 3 -33
6 -15 3 -21 1 -17 -7 4 -7 0 -4 -8 6 -11 14 -16 15 -20 5 -4 -10 -7 -10 -15 1
-11 15 -46 26 -37 11 7 -12 -21 -20 -34 -9 -8 6 -8 5 -1 -3 6 -7 10 -16 10
-20 0 -9 -256 -3 -285 7 -31 11 -57 21 -97 38 -29 13 -38 13 -47 3 -8 -9 -7
-13 4 -14 8 -1 22 -3 30 -4 8 -1 15 -5 15 -9 0 -4 9 -6 20 -4 11 2 20 0 20 -6
0 -5 -11 -9 -24 -9 -44 0 -79 -18 -71 -38 4 -9 8 -22 8 -28 0 -8 10 -9 31 -3
40 12 39 12 33 -6 -4 -8 -2 -17 4 -20 5 -4 8 -1 7 6 -2 6 4 14 12 16 10 3 11
2 3 -4 -8 -6 -4 -12 13 -20 17 -8 26 -8 31 -1 4 7 1 8 -7 3 -9 -6 -11 -4 -5 5
5 9 4 11 -3 6 -7 -4 -12 0 -12 10 0 15 4 14 25 -6 14 -13 25 -26 25 -28 0 -3
-3 -3 -6 1 -4 3 -13 0 -20 -8 -17 -17 -18 -28 -1 -20 6 4 4 0 -5 -8 -12 -9
-14 -17 -7 -24 8 -8 7 -13 0 -17 -6 -4 -11 0 -11 9 0 9 -4 14 -9 11 -10 -7 -9
13 1 29 12 20 -7 33 -46 31 -21 -2 -42 -9 -47 -17 -5 -8 -9 -10 -9 -6 0 5 -15
-2 -32 -15 -62 -44 -140 -88 -157 -88 -10 0 -26 6 -36 14 -12 8 -34 11 -62 8
-43 -5 -44 -4 -39 22 4 24 3 25 -17 14 -12 -6 -33 -19 -47 -29 -14 -10 -38
-16 -55 -14 -16 2 -30 4 -30 5 0 1 -18 4 -40 6 -22 1 -56 6 -75 9 -19 3 -72
-1 -118 -8 -78 -14 -86 -14 -145 6 -34 11 -91 21 -127 22 -36 2 -71 3 -79 4
-15 1 50 48 86 62 12 4 44 11 70 15 48 6 81 23 52 25 -84 9 -151 5 -201 -12
-31 -10 -75 -22 -97 -25 -23 -4 -41 -10 -41 -14 0 -5 -10 -6 -23 -4 -12 2 -15
1 -7 -2 21 -9 30 -25 30 -51 0 -30 -34 -46 -84 -40 -48 7 -107 63 -145 140
-13 26 -29 47 -34 47 -15 0 -47 -41 -47 -60 0 -20 -24 -21 -59 -1 -21 12 -23
17 -17 70 3 32 15 76 26 99 11 23 20 46 20 51 0 6 9 15 19 21 13 6 18 17 15
32 -3 13 2 9 11 -11 21 -46 30 -33 10 15 -8 20 -24 71 -35 112 -10 41 -22 78
-27 81 -4 3 -9 11 -10 16 -1 6 -11 35 -22 66 -17 46 -18 63 -10 95 6 21 19 47
29 56 10 9 23 39 30 67 7 28 16 51 21 51 4 0 5 -7 2 -17 -4 -10 -2 -14 5 -10
6 4 14 21 17 38 7 32 33 69 48 69 5 0 3 -8 -4 -17 -10 -11 -10 -14 -2 -9 8 4
13 1 13 -9 0 -9 -4 -14 -9 -11 -13 9 -29 -36 -25 -74 2 -19 4 -51 4 -70 1 -19
5 -55 10 -80 5 -25 12 -80 15 -123 5 -57 12 -84 25 -97 10 -10 16 -20 14 -22
-2 -3 3 -5 11 -5 15 0 20 62 9 120 -5 23 -8 26 -20 16 -8 -6 -14 -10 -15 -8
-4 22 -8 39 -14 63 -6 21 -5 27 4 22 6 -4 11 -15 11 -24 0 -15 2 -15 10 -2 5
8 10 10 10 5 0 -6 -5 -16 -12 -23 -9 -9 -8 -12 5 -12 22 0 27 61 6 68 -5 2 -7
8 -3 13 3 5 -1 9 -9 9 -8 0 -18 11 -21 24 -3 13 -8 31 -12 39 -7 20 28 28 50
11 11 -7 21 -34 26 -66 8 -46 8 -43 5 29 -3 64 -11 100 -38 165 -18 46 -42
115 -51 153 -10 39 -21 80 -26 92 -5 12 -10 67 -11 122 -1 71 -5 101 -14 105
-7 2 -16 23 -20 46 -4 23 -18 76 -30 117 l-24 76 55 191 c30 105 73 247 95
316 47 143 47 117 -6 437 -20 116 -34 235 -34 280 1 43 -4 105 -10 138 -6 33
-16 89 -22 125 -5 35 -12 231 -15 435 -4 364 -12 681 -18 740 -2 17 -7 91 -11
165 -4 74 -9 151 -10 170 -2 19 -6 184 -9 365 -4 182 -9 394 -11 473 -2 91 0
140 7 136 5 -3 7 -12 4 -20 -3 -7 -1 -16 4 -19 6 -4 10 16 11 47 0 29 3 62 5
73 3 11 6 118 7 238 1 119 3 217 4 217 1 0 7 -27 14 -60 6 -33 16 -63 22 -67
6 -3 7 -2 4 4 -3 5 -9 45 -12 89 -3 43 -9 99 -12 124 -10 63 -4 471 8 615 5
66 19 219 30 340 20 210 21 333 3 520 -2 28 -9 136 -15 240 -12 203 -15 235
-23 305 -10 80 -18 174 -18 198 0 12 -4 22 -9 22 -5 0 -9 12 -9 26 0 14 -3 23
-7 21 -5 -3 -8 9 -8 26 -1 18 -4 48 -8 67 -4 19 -10 78 -12 130 -3 52 -11 178
-17 280 -6 102 -12 325 -13 495 -1 171 -5 321 -8 335 -3 14 -8 61 -11 105 -5
74 -4 78 8 50 14 -29 14 -29 15 -5 0 14 -4 59 -9 100 -5 41 -12 102 -16 135
-3 33 -7 66 -9 72 -2 7 9 50 24 95 29 85 60 185 63 203 0 6 7 24 15 42 7 18
13 42 13 54 0 12 14 37 30 56 25 28 30 43 32 91 1 31 3 75 4 97 5 91 5 151 0
175 -3 14 -10 48 -16 75 -13 58 -43 204 -60 290 -7 33 -35 141 -63 240 l-51
180 2 160 c2 88 7 197 13 242 8 58 8 87 0 101 -6 12 -11 32 -11 47 0 14 -9 39
-21 54 -30 40 -22 76 16 78 55 2 115 16 115 25 0 5 5 6 10 3 6 -4 8 -10 5 -15
-3 -5 3 -11 14 -15 13 -4 21 -19 26 -53 4 -26 13 -59 21 -73 19 -38 44 -111
44 -131 0 -10 5 -18 10 -18 21 0 -27 178 -77 288 -22 47 -32 59 -40 51 -9 -9
-16 -9 -25 -2 -19 16 -138 21 -138 6 0 -14 -36 -27 -50 -18 -16 10 -12 47 8
80 12 19 46 44 93 69 83 43 126 75 74 56 -16 -6 -39 -20 -50 -30 -11 -10 -32
-22 -48 -25 -15 -4 -55 -25 -88 -47 -51 -32 -67 -38 -92 -32 l-31 6 38 20 c34
17 46 47 17 40 -25 -5 1 19 35 33 30 12 34 18 34 49 0 20 -4 36 -10 36 -5 0
-34 -12 -63 -26 l-54 -27 -99 21 c-54 12 -117 26 -140 33 -35 11 -47 10 -87
-7 -26 -10 -47 -22 -47 -25 0 -3 34 -16 74 -28 41 -11 78 -26 81 -31 3 -6 17
-10 30 -10 15 0 29 -9 36 -21 9 -17 13 -19 20 -8 12 19 32 -2 23 -25 -5 -13
-9 -14 -14 -5 -5 7 -22 12 -39 11 -17 0 -31 4 -31 9 0 6 -4 7 -10 4 -5 -3 -10
-2 -10 2 0 5 -12 9 -27 9 -17 -1 -27 4 -25 12 3 16 -6 15 -25 -3 -8 -9 -18
-13 -22 -9 -3 4 0 9 7 11 6 3 10 9 6 14 -3 5 -13 5 -24 -1 -14 -7 -19 -6 -24
6 -4 10 -14 14 -26 11 -11 -3 -20 0 -21 6 0 7 -4 3 -9 -8 -8 -20 -9 -20 -9 1
-1 19 -5 20 -48 13 -27 -4 -69 -14 -95 -23 -43 -15 -110 -25 -263 -41 -33 -3
-73 -8 -90 -10 -16 -2 -63 -7 -104 -10 -41 -3 -93 -10 -117 -14 -32 -6 -41 -5
-37 5 6 16 -24 52 -61 71 -61 32 -87 33 -266 13 -168 -19 -435 -37 -625 -42
-111 -2 -205 -28 -227 -62 -4 -6 -17 0 -34 17 -14 15 -30 24 -35 22 -4 -3 -10
-1 -14 5 -4 6 -11 7 -17 4 -7 -4 -8 -2 -4 4 9 15 -45 29 -184 48 l-115 16
-167 -66 c-92 -36 -174 -66 -182 -66 -8 0 -18 -5 -21 -10 -4 -6 -10 -8 -15 -5
-5 3 -27 1 -47 -4 -21 -5 -56 -12 -78 -16 -22 -3 -47 -7 -55 -10 -8 -2 -36 -7
-61 -9 -26 -3 -69 -15 -95 -27 -53 -23 -148 -28 -183 -9 -11 5 -33 10 -50 10
-35 0 -40 13 -12 32 11 8 19 23 18 33 -1 12 3 19 11 17 8 -1 11 2 8 7 -3 5
-18 8 -34 6 -15 -2 -31 0 -37 3 -5 3 -16 7 -25 8 -8 1 -32 4 -52 7 -21 3 -40
1 -44 -4 -3 -5 -10 -6 -16 -3 -5 4 -36 6 -69 6 -44 0 -59 4 -59 15 0 7 6 13
14 11 8 -2 15 1 15 6 1 5 -15 10 -34 12 -19 1 -35 -2 -35 -8 0 -5 -8 -7 -17
-4 -10 2 -40 7 -68 11 -27 3 -79 12 -115 20 -36 8 -77 17 -92 20 -16 3 -28 12
-28 20 0 23 -53 124 -62 119 -19 -12 -7 -80 22 -124 21 -32 30 -57 30 -86 0
-48 43 -114 88 -138 16 -8 37 -26 46 -40 22 -35 73 -35 126 0 32 21 55 27 123
31 81 5 86 4 128 -24 24 -16 77 -42 118 -57 62 -24 92 -29 190 -33 101 -3 123
-7 167 -30 l51 -27 64 21 c35 12 101 29 146 39 l81 17 99 -36 99 -35 145 29
c79 16 169 34 199 40 30 6 70 17 89 25 32 13 39 12 112 -16 70 -27 85 -29 152
-24 l75 7 72 -51 72 -51 41 13 c23 7 111 35 195 61 l153 48 177 -22 c169 -20
180 -21 223 -5 29 12 72 17 129 16 47 0 112 6 145 14 53 14 72 14 195 -1 74
-10 184 -30 244 -46 l108 -28 97 20 c71 15 115 19 171 14 41 -3 109 -8 150
-10 110 -7 109 -5 109 -228 0 -100 -8 -255 -16 -344 l-17 -162 32 -108 c27
-95 32 -132 42 -318 12 -233 28 -434 35 -445 6 -11 -32 -314 -55 -434 -17 -86
-19 -117 -11 -168 9 -56 19 -669 13 -823 -1 -33 7 -167 18 -299 19 -229 19
-245 3 -400 -20 -198 -20 -449 1 -850 15 -275 15 -309 0 -421 -16 -114 -15
-131 1 -261 16 -127 37 -742 29 -873 -1 -25 -7 -183 -12 -351 -6 -168 -15
-332 -21 -365 -19 -111 -53 -410 -53 -465 1 -30 13 -149 27 -265 14 -115 32
-266 41 -335 18 -148 39 -567 38 -730 -1 -103 -18 -350 -44 -670 -6 -63 -15
-245 -20 -405 -6 -159 -15 -337 -21 -395 -6 -58 -11 -112 -11 -120 0 -8 21
-116 47 -240 l46 -225 -15 -135 c-9 -74 -23 -209 -31 -300 -8 -91 -20 -200
-26 -242 -10 -70 -9 -84 9 -135 31 -90 42 -182 26 -215 -20 -39 -18 -58 15
-141 l29 -73 -12 -139 c-6 -77 -17 -150 -24 -162 -20 -36 -14 -113 12 -168 39
-82 117 -144 245 -195 84 -33 86 -34 232 -32 l148 2 93 51 c51 28 100 51 110
52 9 1 64 -21 123 -48 104 -47 108 -48 135 -33 29 17 67 12 195 -23 22 -6 110
-13 196 -15 l156 -5 107 57 107 56 132 3 c105 3 148 -1 209 -16 45 -11 111
-19 160 -19 68 0 100 -6 164 -29 l81 -30 179 46 179 46 160 -18 c88 -10 170
-17 181 -17 12 1 59 14 105 28 94 30 127 31 201 9 28 -8 73 -15 100 -15 34 0
66 -9 108 -30 33 -16 66 -30 75 -30 8 0 60 22 115 50 55 27 106 50 113 50 8 0
34 -16 58 -35 90 -72 216 -85 325 -34 55 26 72 30 112 25 26 -4 60 -12 76 -18
27 -11 31 -9 73 40 25 29 50 52 57 52 7 0 46 25 87 55 77 58 85 72 88 147 0
21 13 62 28 93 l27 54 -23 90 c-22 83 -22 96 -11 187 6 55 15 146 19 204 5 58
13 116 18 130 5 14 6 218 3 470 -5 380 -3 472 12 630 11 113 19 307 22 500 2
173 9 366 16 429 10 88 10 150 1 265 -6 83 -20 284 -31 446 -12 162 -32 399
-46 525 -22 208 -24 270 -24 635 1 223 -2 434 -5 470 -5 43 2 153 19 320 62
597 59 551 44 720 -15 180 -15 619 1 795 6 66 11 264 11 440 0 273 3 339 21
450 11 72 27 170 34 219 l14 89 -65 355 -64 356 19 175 c11 97 22 284 26 416
4 195 10 268 32 388 29 165 32 124 -33 487 -21 123 -24 162 -19 255 5 87 2
136 -14 233 l-20 123 20 147 c18 128 19 165 11 281 -9 121 -8 141 10 204 12
41 18 87 15 111 -2 22 2 79 9 126 7 47 12 104 12 126 -1 49 37 136 84 195 18
23 72 67 119 99 83 55 91 58 185 70 65 9 135 27 204 53 138 52 170 49 388 -32
89 -34 174 -61 188 -61 13 0 40 7 60 15 28 12 44 12 84 3 46 -11 56 -9 169 31
l121 43 93 -21 c86 -18 98 -19 142 -6 26 8 82 15 123 15 69 0 84 -4 196 -54
67 -30 144 -64 173 -76 l51 -22 224 82 c237 87 297 99 483 100 87 0 284 -25
327 -42 19 -7 47 -7 98 2 56 9 85 9 138 -1 37 -7 105 -13 152 -15 74 -1 99 -7
190 -44 105 -42 105 -42 150 -27 38 13 54 14 105 3 40 -8 75 -10 107 -4 41 8
52 6 77 -13 41 -30 67 -20 120 48 41 52 52 81 67 173 2 14 7 41 10 61 4 23 1
47 -8 64 -23 43 1 164 74 370 12 33 21 71 20 85 -2 62 -22 210 -35 260 -8 30
-17 100 -20 155 -3 56 -11 113 -16 129 -8 19 -8 33 0 48 7 13 10 69 8 152 -3
163 1 337 10 396 4 25 2 103 -3 173 -9 120 -8 133 14 202 22 71 23 77 10 197
-10 99 -11 177 -1 393 6 149 11 314 11 367 0 53 4 107 9 121 6 16 4 47 -6 93
-8 38 -14 100 -14 137 1 42 -5 79 -14 97 -12 23 -13 34 -3 55 16 36 0 66 -58
104 -36 25 -49 29 -55 19 -7 -10 -11 -10 -21 0 -9 9 -9 12 1 12 7 0 19 6 27
14 12 13 11 18 -8 41 -17 19 -34 26 -68 29 -25 1 -65 13 -90 25 l-45 22 68
-61 c114 -105 75 -101 -47 4 -45 39 -55 52 -42 54 18 4 -73 52 -98 52 -7 0
-49 18 -95 40 -45 22 -90 39 -99 39 -9 -1 -62 -8 -117 -16z m620 -306 c30 -31
85 -157 85 -197 0 -22 -3 -40 -7 -40 -9 0 -35 42 -76 119 -15 30 -39 65 -52
77 -29 27 -32 41 -7 47 31 8 43 7 57 -6z m23 -1078 c-1 -13 -10 -24 -18 -24
-8 0 -19 -4 -23 -10 -5 -6 -6 -2 -3 9 4 11 1 23 -6 28 -11 6 -10 8 0 8 8 0 10
5 6 13 -6 9 -3 8 8 -1 9 -8 14 -20 11 -28 -3 -8 0 -14 7 -14 9 0 11 10 6 32
-5 24 -3 29 5 21 6 -6 9 -21 7 -34z m-4493 -2269 c-3 -5 -10 -10 -16 -10 -5 0
-9 5 -9 10 0 6 7 10 16 10 8 0 12 -4 9 -10z m65 -10 c8 -5 11 -12 7 -16 -4 -4
-15 0 -24 9 -18 18 -8 23 17 7z m1195 -40 c12 -19 -7 -58 -31 -63 -13 -2 -24
0 -24 6 0 5 -7 4 -15 -3 -28 -23 -15 4 17 37 34 35 43 39 53 23z m1069 -45 c3
-9 0 -15 -9 -15 -9 0 -12 6 -9 15 4 8 7 15 9 15 2 0 5 -7 9 -15z m-1393 -22
c7 -7 4 -12 -10 -16 -12 -3 -21 -1 -21 5 0 5 -5 6 -10 3 -6 -4 -8 -10 -6 -14
3 -4 -1 -8 -8 -8 -8 0 -12 6 -9 12 5 15 -35 15 -45 0 -7 -11 -52 -19 -52 -9 0
3 14 10 30 15 17 6 30 14 30 18 0 12 89 6 101 -6z m-6701 -3 c0 -5 -5 -10 -11
-10 -5 0 -7 5 -4 10 3 6 8 10 11 10 2 0 4 -4 4 -10z m8393 -17 c-3 -7 -9 -13
-14 -13 -5 0 -9 6 -9 13 0 8 6 14 14 14 8 0 12 -6 9 -14z m68 1 c12 -14 11
-16 -5 -13 -11 2 -21 10 -24 17 -5 17 13 15 29 -4z m-1373 -6 c-4 -12 -12 -13
-55 -9 -16 2 -15 3 2 11 30 13 57 12 53 -2z m432 3 c0 -6 -4 -12 -8 -15 -5 -3
-9 1 -9 9 0 8 4 15 9 15 4 0 8 -4 8 -9z m2657 -13 c16 -13 63 -115 63 -138 0
-26 -41 -51 -94 -57 -43 -5 -45 -4 -64 34 -11 22 -27 45 -36 52 -18 15 -40 5
-32 -15 5 -12 2 -12 -15 -3 -13 7 -35 8 -58 3 -20 -4 -40 -6 -46 -4 -5 1 -18
2 -28 2 -9 0 -15 3 -12 8 8 12 150 90 164 90 7 0 27 10 46 23 35 24 85 26 112
5z m-11452 2 c4 -6 10 -8 15 -5 4 3 22 -6 39 -21 17 -14 35 -23 40 -20 16 10
20 -8 6 -27 -7 -10 -19 -16 -26 -15 -9 2 -13 -4 -11 -16 3 -13 -1 -17 -11 -13
-10 4 -20 -7 -32 -33 -12 -27 -22 -36 -35 -33 -9 3 -53 -7 -97 -21 l-80 -25
-78 25 c-42 13 -87 30 -99 36 -11 7 -26 11 -32 10 -7 -1 -17 12 -23 30 -11 32
-3 47 26 48 6 0 24 5 40 12 15 6 32 10 37 9 5 -1 16 1 25 5 21 9 18 9 74 18
26 4 47 11 47 16 0 4 15 8 33 9 17 0 48 5 67 10 48 12 68 13 75 1z m6800 -33
c14 -24 25 -56 25 -70 0 -30 19 -77 32 -77 4 0 8 -7 8 -16 0 -18 22 -14 28 6
3 9 0 10 -9 4 -12 -6 -12 -5 -1 8 9 11 10 18 2 23 -5 3 -10 1 -10 -4 0 -6 -4
-11 -9 -11 -5 0 -8 12 -5 26 3 18 1 23 -7 18 -8 -4 -9 -3 -5 5 4 6 11 9 16 6
18 -11 111 -14 104 -4 -10 17 49 -17 69 -39 18 -20 18 -21 -4 -46 -12 -14 -30
-26 -39 -26 -9 0 -21 -5 -27 -11 -8 -8 -17 -8 -32 0 -17 9 -20 9 -15 -3 3 -8
-1 -17 -8 -22 -7 -4 -10 -4 -6 1 4 4 3 15 -4 22 -9 11 -9 16 2 23 8 5 11 12 8
15 -15 15 -30 -9 -26 -43 l4 -35 -21 27 c-11 14 -26 26 -32 26 -6 0 -14 10
-18 23 -7 21 -7 21 -12 2 -10 -47 -14 -47 -44 -5 -17 23 -32 40 -35 38 -2 -3
-6 -20 -8 -39 -3 -19 -6 -34 -7 -34 -2 0 -9 -44 -11 -72 -2 -18 -5 -20 -22
-11 -80 42 -124 204 -69 250 8 6 19 24 25 38 9 23 10 24 22 8 18 -25 29 -23
54 12 32 42 56 38 87 -13z m-5235 14 c0 -5 8 -7 19 -4 21 5 37 -12 21 -22 -5
-3 -10 -1 -10 6 0 9 -3 9 -14 0 -11 -9 -15 -8 -20 4 -3 9 -11 13 -17 9 -8 -4
-9 -3 -5 4 9 14 26 16 26 3z m6509 -62 c-7 -4 -21 -3 -31 2 -22 12 -24 23 -3
15 8 -3 15 0 15 6 0 7 5 6 15 -2 12 -10 13 -15 4 -21z m-1247 -281 c2 -82 0
-108 -9 -108 -14 0 -14 4 -18 85 -3 41 14 140 21 132 1 -1 4 -50 6 -109z m5
-361 c18 -10 36 -17 40 -17 3 1 16 -23 29 -52 20 -47 21 -55 8 -69 -8 -9 -23
-16 -32 -14 -9 1 -11 0 -4 -2 9 -3 12 -13 9 -26 -25 -98 -31 -117 -39 -117 -5
0 -6 -4 -3 -10 3 -5 1 -10 -6 -10 -9 0 -10 -3 -2 -11 7 -7 7 -17 -1 -35 -13
-28 -26 -31 -27 -6 -1 22 -6 61 -18 142 -6 36 -13 106 -17 156 -7 102 -3 106
63 71z m73 -1683 c35 -113 35 -135 5 -244 -16 -60 -32 -99 -39 -97 -6 2 -14
30 -17 63 -9 78 -10 293 -3 322 11 41 33 24 54 -44z m-4910 -2774 c7 -63 14
-131 16 -150 6 -58 -20 -346 -36 -396 -6 -19 -8 73 -5 256 2 157 5 314 5 349
0 35 2 62 4 60 2 -2 10 -56 16 -119z m4785 -1681 c-4 -6 -7 -26 -7 -44 0 -19
-6 -42 -14 -52 -12 -16 -13 -15 -14 14 0 17 -3 38 -6 46 -3 8 2 22 11 31 18
18 40 22 30 5z m99 -2354 c22 -226 33 -432 30 -570 -3 -177 -5 -206 -15 -199
-4 2 -9 -2 -11 -9 -4 -12 6 -194 16 -287 4 -36 2 -41 -6 -26 -6 11 -14 33 -19
50 -4 17 -19 69 -32 116 -55 185 -69 236 -73 260 -3 14 -15 57 -27 95 -11 39
-22 77 -24 85 -1 8 -7 36 -13 62 -11 44 -9 57 30 178 23 72 46 160 51 197 5
36 14 73 20 82 9 14 10 14 5 -1 -3 -10 -2 -18 3 -18 5 0 11 -13 14 -28 6 -28
34 -41 34 -16 0 7 -3 11 -7 9 -3 -2 -1 16 4 40 6 24 11 43 12 42 2 -1 5 -29 8
-62z m-4910 -482 c9 -38 18 -97 21 -133 3 -36 10 -101 16 -145 33 -241 47
-638 24 -675 -5 -8 -9 -33 -10 -56 -3 -55 -34 -173 -53 -199 -10 -13 -13 -15
-9 -4 3 9 -1 26 -8 36 -8 11 -14 29 -14 39 -1 36 -4 54 -11 54 -3 0 -6 8 -6
18 -1 9 -8 51 -17 92 -12 54 -15 106 -11 185 3 61 7 182 10 270 2 88 7 178 9
200 3 22 8 96 11 165 3 69 7 136 9 150 1 14 3 38 4 53 2 45 18 23 35 -50z m33
-1965 c-3 -8 -6 -5 -6 6 -1 11 2 17 5 13 3 -3 4 -12 1 -19z m10 -65 c-3 -10
-5 -4 -5 12 0 17 2 24 5 18 2 -7 2 -21 0 -30z m10 -45 c-3 -8 -6 -5 -6 6 -1
11 2 17 5 13 3 -3 4 -12 1 -19z m39 -117 c0 -10 -5 -17 -11 -14 -7 2 -12 10
-12 18 0 8 5 15 12 15 6 0 11 -8 11 -19z m1904 -678 c0 -9 -3 -13 -7 -10 -3 4
-12 2 -20 -4 -7 -6 -13 -8 -13 -4 0 7 29 34 38 35 1 0 2 -7 2 -17z m2664 -80
c8 -8 13 -10 43 -12 10 -1 13 -4 8 -10 -12 -10 -98 -32 -103 -26 -3 2 -2 16 2
30 6 24 34 34 50 18z m-3061 -73 c-3 -12 -8 -19 -11 -16 -5 6 5 36 12 36 2 0
2 -9 -1 -20z"/>
<path d="M8099 20915 c24 -8 74 -16 110 -19 l66 -5 -70 19 c-38 10 -88 18
-110 19 l-40 0 44 -14z"/>
<path d="M10742 20917 c-27 -15 -19 -27 17 -26 18 1 20 3 8 6 -14 4 -16 8 -6
19 14 17 11 17 -19 1z"/>
<path d="M11224 20899 c-47 -49 -56 -51 -120 -25 -73 30 -161 49 -194 44 -25
-4 -24 -5 5 -13 38 -10 75 -43 68 -60 -10 -28 41 -45 143 -48 99 -4 162 10
166 37 0 6 2 16 3 21 2 6 3 18 4 28 0 9 7 17 14 17 6 1 26 7 42 15 29 13 28
13 -36 14 -60 1 -67 -1 -95 -30z"/>
<path d="M13513 20907 c-54 -22 -68 -37 -35 -37 10 0 23 -5 29 -11 8 -8 19 -6
41 5 17 9 38 16 47 16 20 0 19 13 -3 33 -22 20 -15 21 -79 -6z"/>
<path d="M6655 20900 c-154 -15 -181 -21 -285 -61 l-115 -43 39 -11 c39 -11
68 -5 161 35 17 7 44 14 60 15 17 1 46 6 65 10 19 5 44 9 55 11 11 2 53 12 94
24 41 11 83 20 93 20 10 0 18 5 18 10 0 6 -3 9 -7 9 -5 -1 -84 -9 -178 -19z"/>
<path d="M6856 20913 c-4 -4 3 -15 16 -25 16 -12 17 -16 5 -12 -12 4 -16 2
-12 -7 4 -10 -6 -15 -38 -16 -70 -4 -97 -9 -202 -38 -55 -15 -113 -29 -130
-32 -16 -3 -31 -9 -33 -14 -2 -5 -12 -9 -23 -9 -29 0 -23 -17 11 -29 25 -8 60
-3 200 30 97 24 167 45 164 51 -8 13 452 0 489 -14 15 -6 27 -14 27 -19 0 -9
130 -3 174 9 51 14 43 32 -14 32 -31 0 -49 4 -45 10 3 6 13 10 22 10 18 0 107
49 100 56 -2 2 -34 -4 -70 -13 -65 -17 -68 -17 -102 1 -33 18 -42 18 -207 4
-151 -13 -180 -13 -228 0 -30 7 -59 15 -65 16 -5 1 -15 5 -21 9 -6 3 -14 3
-18 0z"/>
<path d="M10527 20865 c-85 -34 -90 -34 -165 -25 -42 6 -84 12 -93 15 -30 10
-29 -11 2 -34 31 -23 82 -30 134 -18 l30 8 -25 -21 -25 -20 47 14 c26 8 64 27
85 44 21 16 56 32 78 36 58 10 75 16 75 27 0 18 -56 8 -143 -26z"/>
<path d="M15444 20889 c-3 -5 -4 -9 -2 -10 46 -7 91 -10 86 -4 -12 12 -78 23
-84 14z"/>
<path d="M10870 20880 c0 -6 7 -10 15 -10 8 0 15 2 15 4 0 2 -7 6 -15 10 -8 3
-15 1 -15 -4z"/>
<path d="M13273 20883 c9 -2 25 -2 35 0 9 3 1 5 -18 5 -19 0 -27 -2 -17 -5z"/>
<path d="M9278 20873 c34 -2 90 -2 125 0 34 2 6 3 -63 3 -69 0 -97 -1 -62 -3z"/>
<path d="M13874 20865 c-21 -16 -15 -18 46 -16 96 4 119 31 26 31 -30 0 -60
-6 -72 -15z"/>
<path d="M15715 20874 c190 -49 224 -55 315 -52 103 3 103 3 -70 33 -81 14
-287 30 -245 19z"/>
<path d="M18138 20873 c7 -3 16 -2 19 1 4 3 -2 6 -13 5 -11 0 -14 -3 -6 -6z"/>
<path d="M5307 20838 c-15 -12 -15 -21 -3 -93 7 -44 17 -89 23 -100 18 -32 15
-260 -4 -328 -12 -44 -15 -85 -10 -172 4 -88 1 -132 -12 -195 -18 -80 -18 -81
4 -129 20 -42 22 -55 13 -102 -5 -30 -7 -123 -4 -209 15 -389 17 -355 -26
-454 -21 -49 -38 -100 -38 -114 0 -13 9 -76 21 -140 14 -79 19 -138 15 -181
-5 -53 1 -87 31 -203 l36 -139 -21 -83 c-15 -61 -33 -100 -63 -143 l-41 -58 6
-175 6 -175 41 -59 c34 -48 40 -63 35 -90 -6 -30 -6 -30 8 -10 9 12 37 35 63
52 32 21 56 47 73 79 14 26 30 53 35 60 6 7 16 19 23 27 6 8 12 19 12 24 0 5
11 19 24 31 19 18 24 33 23 63 -1 37 -7 44 -72 95 -56 44 -78 70 -112 131 -24
42 -43 79 -43 82 0 3 24 30 52 60 46 49 50 52 46 28 -4 -20 -1 -28 9 -28 18 0
73 117 73 156 0 34 -24 100 -45 124 -7 8 -21 42 -30 75 -10 33 -30 85 -45 115
-42 83 -48 100 -54 157 -3 28 -14 70 -26 93 l-21 41 27 107 c19 77 28 149 34
258 4 83 12 159 18 170 6 10 12 13 12 7 0 -7 7 -13 15 -13 9 0 25 -21 37 -47
20 -45 21 -47 28 -23 4 16 0 38 -12 62 -10 21 -18 44 -18 53 0 8 -7 15 -16 15
-14 0 -16 22 -13 208 4 202 3 208 -19 237 -22 30 -28 62 -19 101 7 29 30 64
41 64 4 0 3 6 -3 14 -7 8 -8 17 -3 20 5 3 14 -6 21 -20 6 -15 7 -23 1 -19 -14
9 -13 4 11 -41 11 -21 18 -31 15 -21 -3 10 0 17 8 17 14 0 29 -50 43 -145 l7
-50 8 40 c4 22 10 85 14 141 l7 100 -42 89 c-23 48 -40 90 -38 91 2 2 23 -30
47 -71 24 -41 49 -76 55 -79 7 -2 9 22 7 73 -4 66 -9 84 -40 136 -20 33 -53
78 -73 100 -75 84 -155 247 -144 297 7 32 6 33 -18 16z m112 -2372 c26 -51 28
-60 15 -73 -8 -8 -12 -19 -9 -24 4 -5 -1 -10 -9 -10 -9 -1 -21 -2 -28 -3 -23
-2 -48 138 -32 179 9 23 24 6 63 -69z m-28 -538 c32 -63 35 -103 14 -163 -8
-22 -15 -49 -15 -60 0 -11 -4 -26 -9 -34 -14 -23 -57 16 -91 83 -32 63 -32 69
0 166 10 30 21 69 25 85 l7 30 20 -25 c11 -14 33 -51 49 -82z"/>
<path d="M8789 20806 c-20 -16 -21 -18 -4 -11 11 4 30 10 43 12 12 3 22 9 22
14 0 14 -37 5 -61 -15z"/>
<path d="M18647 20818 c16 -8 32 -8 55 0 32 9 31 10 -22 10 -46 1 -52 -1 -33
-10z"/>
<path d="M8245 20810 c-14 -6 0 -9 47 -9 37 -1 70 4 73 9 8 12 -91 12 -120 0z"/>
<path d="M19040 20810 c0 -5 5 -10 10 -10 6 0 10 5 10 10 0 6 -4 10 -10 10 -5
0 -10 -4 -10 -10z"/>
<path d="M10285 20749 c-38 -11 -97 -24 -130 -28 l-60 -8 67 -2 c37 0 79 4 95
11 15 6 51 19 78 29 68 23 37 22 -50 -2z"/>
<path d="M19020 20740 c0 -5 4 -10 9 -10 6 0 13 5 16 10 3 6 -1 10 -9 10 -9 0
-16 -4 -16 -10z"/>
<path d="M5688 20723 c12 -2 30 -2 40 0 9 3 -1 5 -23 4 -22 0 -30 -2 -17 -4z"/>
<path d="M11180 20675 c-8 -9 -8 -15 -2 -15 12 0 26 19 19 26 -2 2 -10 -2 -17
-11z"/>
<path d="M17531 20630 c-63 -9 -93 -20 -54 -20 11 0 91 -7 179 -16 99 -9 193
-13 250 -9 91 7 134 19 104 29 -55 18 -383 29 -479 16z"/>
<path d="M19518 18878 c-31 -60 -32 -83 -2 -165 15 -43 35 -89 44 -103 10 -14
23 -42 29 -62 18 -54 29 -55 17 -2 -6 24 -14 44 -17 44 -4 0 -5 9 -2 19 3 10
-9 68 -25 127 -19 68 -28 121 -25 142 3 17 4 32 1 32 -2 0 -11 -15 -20 -32z"/>
<path d="M10085 18210 c-19 -7 -18 -8 5 -13 60 -13 90 -16 94 -8 6 10 -38 31
-62 30 -9 0 -26 -4 -37 -9z"/>
<path d="M8795 17709 c-16 -5 -66 -14 -110 -19 -108 -15 -128 -21 -117 -32 11
-11 252 18 266 32 17 17 -7 28 -39 19z"/>
<path d="M6690 17575 c-58 -22 -81 -24 -226 -23 -89 0 -181 4 -204 8 -23 4
-51 5 -62 2 -20 -5 -20 -5 3 -17 13 -7 28 -12 33 -11 6 2 8 1 3 -2 -4 -2 -12
-12 -17 -23 -10 -17 -8 -18 15 -9 27 10 75 6 104 -9 9 -5 76 -9 150 -10 122
-1 136 1 153 19 10 11 25 20 33 20 8 0 15 5 15 10 0 6 9 10 21 10 11 0 17 5
14 10 -5 9 23 15 48 11 4 0 7 4 7 10 0 6 7 9 15 6 8 -4 17 -1 21 5 4 7 3 8 -4
4 -7 -4 -12 -2 -12 3 0 17 -38 11 -110 -14z"/>
<path d="M5977 17496 c4 -5 -1 -7 -10 -3 -10 3 -17 2 -17 -4 0 -6 -4 -8 -9 -4
-6 3 -25 -7 -43 -23 -18 -16 -41 -31 -50 -35 -10 -4 -18 -12 -18 -18 0 -8 4
-8 13 -1 18 15 134 42 143 33 4 -3 4 0 0 7 -4 7 -1 12 9 12 9 0 13 5 10 10 -4
6 -11 7 -17 4 -7 -4 -8 -2 -4 4 4 6 12 9 19 6 7 -2 21 1 31 9 16 11 13 13 -23
13 -24 0 -37 -4 -34 -10z"/>
<path d="M7654 17461 c-28 -10 -59 -23 -70 -29 -10 -6 -71 -34 -134 -63 -127
-57 -116 -56 -263 -15 -70 19 -67 19 -67 1 0 -8 5 -15 10 -15 6 0 10 -5 10
-11 0 -7 -11 -9 -27 -6 -18 3 -42 -3 -71 -19 -23 -13 -50 -24 -60 -24 -9 0
-37 -14 -62 -31 -34 -23 -39 -29 -20 -25 115 24 160 29 261 27 83 -1 128 2
161 13 25 9 85 27 134 41 49 14 110 37 136 50 25 13 67 30 93 36 50 13 65 30
45 54 -6 8 -9 19 -5 25 9 14 -12 12 -71 -9z"/>
<path d="M6475 17353 c-35 -9 -68 -23 -63 -28 2 -2 31 4 63 15 53 17 53 26 0
13z"/>
<path d="M16427 17293 c-4 -6 0 -26 8 -44 8 -19 14 -28 15 -21 0 7 4 11 9 7 6
-3 9 3 9 12 0 10 1 24 3 32 2 7 -2 16 -8 18 -8 3 -13 -3 -14 -14 0 -17 -1 -17
-8 1 -5 12 -10 15 -14 9z"/>
<path d="M8834 17283 c4 -4 -31 -13 -79 -20 -47 -7 -93 -17 -103 -23 -14 -8
-11 -9 13 -5 17 3 57 8 90 11 65 6 115 21 115 35 0 5 -10 9 -22 9 -12 0 -18
-3 -14 -7z"/>
<path d="M18527 17274 c2 -6 16 -11 31 -10 15 0 47 -3 72 -7 l45 -8 -24 19
c-28 23 -132 28 -124 6z"/>
<path d="M10297 15624 c-9 -48 46 -280 82 -340 23 -40 13 14 -45 256 -14 58
-27 106 -29 108 -1 2 -5 -9 -8 -24z"/>
<path d="M10194 14110 c-4 -27 -10 -50 -15 -50 -5 0 -8 -3 -7 -7 1 -5 -3 -37
-9 -73 -6 -36 -12 -90 -13 -120 -1 -30 -4 -68 -6 -85 -14 -82 -16 -117 -7
-112 5 3 10 0 10 -8 0 -8 -6 -16 -12 -19 -6 -2 -12 -23 -13 -46 -1 -22 -7 -80
-12 -128 -14 -116 -40 -521 -40 -629 0 -46 20 -41 21 5 1 34 2 35 10 12 6 -18
7 -6 5 40 -3 36 0 119 5 185 6 66 11 145 11 175 1 30 5 60 10 66 4 6 6 28 4
48 -3 20 -1 34 3 32 5 -3 12 38 16 92 8 111 12 143 24 192 8 32 9 29 11 -30 1
-36 3 -69 5 -75 1 -5 3 -16 3 -23 1 -7 6 -11 11 -8 5 4 6 101 3 234 -4 125 -7
262 -6 305 0 42 -1 77 -2 77 -2 0 -6 -22 -10 -50z"/>
<path d="M10070 12770 c0 -5 5 -10 11 -10 5 0 7 5 4 10 -3 6 -8 10 -11 10 -2
0 -4 -4 -4 -10z"/>
<path d="M10082 12720 c0 -14 2 -19 5 -12 2 6 2 18 0 25 -3 6 -5 1 -5 -13z"/>
<path d="M10225 8820 c3 -179 8 -341 11 -360 4 -19 7 -40 8 -47 1 -7 5 -16 9
-19 11 -11 13 241 3 361 -2 33 -7 119 -11 190 -14 270 -25 199 -20 -125z"/>
<path d="M14875 5030 c3 -5 11 -10 16 -10 6 0 7 5 4 10 -3 6 -11 10 -16 10 -6
0 -7 -4 -4 -10z"/>
<path d="M11580 4753 c0 -5 -20 -14 -44 -21 -23 -8 -55 -20 -70 -27 -15 -8
-24 -9 -20 -4 4 6 -5 3 -20 -6 -14 -10 -26 -15 -26 -12 0 3 -12 -6 -27 -19
-33 -28 -227 -124 -252 -124 -9 0 -21 -4 -27 -8 -5 -5 -42 -19 -81 -31 -40
-12 -73 -26 -73 -31 0 -12 56 -2 92 16 15 8 36 14 47 14 11 0 23 5 26 10 3 6
13 10 22 10 8 0 61 18 117 39 55 22 110 43 121 47 38 14 74 15 97 3 13 -7 38
-14 57 -16 27 -3 32 -1 28 12 -4 8 -1 16 6 16 23 3 82 -1 122 -7 68 -11 105
-8 134 10 10 7 12 6 6 -4 -5 -8 7 -2 26 12 19 14 42 24 51 23 10 -2 20 1 23 5
3 5 12 7 20 3 8 -3 15 1 15 8 0 7 -3 10 -6 7 -3 -4 -17 0 -31 7 -14 7 -34 12
-44 10 -11 -2 -19 -1 -19 4 0 4 -16 8 -37 9 -20 2 -40 5 -45 8 -9 6 -35 12
-83 19 -51 8 -88 16 -97 21 -4 3 -8 1 -8 -3z"/>
<path d="M10095 4633 c18 -42 23 -49 30 -41 7 7 -27 77 -38 78 -4 0 0 -17 8
-37z"/>
<path d="M11863 4634 c-3 -8 -9 -11 -14 -8 -15 9 -10 -3 8 -17 11 -10 14 -10
9 -1 -9 15 6 16 22 0 9 -9 13 -7 18 6 4 9 4 20 0 23 -13 13 -37 11 -43 -3z
m37 -12 c0 -12 -3 -12 -15 -2 -8 7 -15 13 -15 15 0 1 7 2 15 2 8 0 15 -7 15
-15z"/>
<path d="M11923 4635 c0 -8 4 -12 9 -9 5 3 6 10 3 15 -9 13 -12 11 -12 -6z"/>
<path d="M11944 4610 c2 -16 20 -14 24 2 3 10 2 10 -6 -1 -7 -9 -11 -10 -15
-2 -4 7 -5 8 -3 1z"/>
<path d="M11980 4616 c0 -2 8 -10 18 -17 15 -13 16 -12 3 4 -13 16 -21 21 -21
13z"/>
<path d="M10172 4445 c16 -35 45 -48 77 -34 21 9 27 18 23 35 -4 20 -10 22
-57 21 -50 -1 -52 -2 -43 -22z"/>
</g>
</svg>
